#tb 0: 1/25
0,          0,          0,        1,   195096, 07f8ab6c21d43accdc468e8094072475
0,          1,          1,        1,   195040, 25430ae420a26ea70ab73ae2fd4f558a
0,          2,          2,        1,   196044, eeeaa5cfc54537f860f88b67d59ba568
0,          3,          3,        1,   195256, f12b178cc901ea71bfc66b844e772710
0,          4,          4,        1,   194856, 337796f5168cf44ab2871e3d2e3f20cf
0,          5,          5,        1,   195360, 26bc4e452288cea2409ed7a10304f6a1
0,          6,          6,        1,   195184, 70765a689e3c7751ffe43f042ba9d9b3
0,          7,          7,        1,   194812, fbe55683b8af121205dbfc5fc7257907
0,          8,          8,        1,   195040, db2156d4e31b34e3aab0e245b070afa8
0,          9,          9,        1,   195476, 788fb862ec12c7383b571a75f616e046
0,         10,         10,        1,   195056, e22a8e7d469a9baed77853e5bc991034
0,         11,         11,        1,   195072, 8d7556d525c1482bfe50f1aa668c3ef3
0,         12,         12,        1,   194232, b6bc090090c8dc46cb771b0d8c10082b
0,         13,         13,        1,   195072, 37b2a915325aef69c14a4d977330bd95
0,         14,         14,        1,   195348, 38d1c5584386d5ecfa6cd1b1a21bcf95
0,         15,         15,        1,   195668, 0e079972d3c4b5c46a65a0a1968fe331
0,         16,         16,        1,   194880, 845d57af36c419b1c97b414d03660d1c
0,         17,         17,        1,   195168, 99aa1f4bb9830296b4a7fee9d99aa1d7
0,         18,         18,        1,   194448, 918caa6252898799ea2e6767ccafb441
0,         19,         19,        1,   194360, b4bb3cf4c1429b55419c06e103b26a58
0,         20,         20,        1,   193700, ee116403cab362226270fedf7cffa61f
0,         21,         21,        1,   194008, b0308dc9b17f84247e5ee34ce0ae2055
0,         22,         22,        1,   194096, 884e9a814fc05a05347b8d73268babe7
0,         23,         23,        1,   195092, 9942a01b617fc2d628805c181bc2c981
0,         24,         24,        1,   195196, 6c86d3e2bd936ece2ae1f5a80811794c
0,         25,         25,        1,   194912, d16b92cff2bcf988497961e8f0e3fd04
0,         26,         26,        1,   194768, a34ab92404a55688b0d23bffe43caeae
0,         27,         27,        1,   194360, af1048eb8a9f1c9e111bf3a7988b6fc7
0,         28,         28,        1,   193568, 701a8d4fdc0bb486b443005fa6374312
0,         29,         29,        1,   193560, 4a8ae0776ebde106cb8c7665130a7ad0
0,         30,         30,        1,   193960, c18dd6ef654fa74c1de408028ce321e8
0,         31,         31,        1,   194780, 291d914b3ecd5e070d7c1d3088bb7c07
0,         32,         32,        1,   194648, 5a0b8dd59921b84c34517c123a1e9b4f
0,         33,         33,        1,   194944, fd9f5dacb693b447ee9ba2d7442476e1
0,         34,         34,        1,   194736, 494a861598f740612b7024bcd79d8e1d
0,         35,         35,        1,   194776, 1cb7f8ad6f8dea5809ab57b113a9d71e
0,         36,         36,        1,   194784, 6fd7b74e417650f719181b18bef46918
0,         37,         37,        1,   194912, db0d9b73a53b36452711e1e3b423e66e
0,         38,         38,        1,   194152, e2f332679c7e636b377ed8a853bfba9c
0,         39,         39,        1,   194172, d92749f7c7d6776df96f12b947f76698
0,         40,         40,        1,   193608, a8c4a092ea7150729c8d4fc1a4d52479
0,         41,         41,        1,   194260, 894f7d88f405dd2a5966ff2cac697480
0,         42,         42,        1,   193916, 717cf2e1f09908b96fd6931cd6e2397c
0,         43,         43,        1,   194140, 0e37397d73bb07c71a8fcb9f0977ccbf
0,         44,         44,        1,   193656, 7f6b6095cd4e15a66b09006710a6bcbe
0,         45,         45,        1,   192964, 5683af73e72782f026dbb6b58abdba9b
0,         46,         46,        1,   192640, 195ae6b83bfa182e0d4f378f6430246c
0,         47,         47,        1,   192584, f5f315730639b3848bdb19591b354737
0,         48,         48,        1,   192360, 884e8b06ed2888995a73a857909199b2
0,         49,         49,        1,   191916, b4b7c5006c28cbc441738f6f5b4a4657
